<svg width="31" height="34" viewBox="0 0 31 34" fill="none" xmlns="http://www.w3.org/2000/svg">
<path d="M4.25 29.625H9.875V18.375H21.125V29.625H26.75V12.75L15.5 4.3125L4.25 12.75V29.625ZM4.25 33.375C3.21875 33.375 2.33625 33.0081 1.6025 32.2744C0.8675 31.5394 0.5 30.6562 0.5 29.625V12.75C0.5 12.1562 0.633125 11.5938 0.899375 11.0625C1.16437 10.5313 1.53125 10.0937 2 9.75L13.25 1.3125C13.5938 1.0625 13.9531 0.875 14.3281 0.75C14.7031 0.625 15.0938 0.5625 15.5 0.5625C15.9062 0.5625 16.2969 0.625 16.6719 0.75C17.0469 0.875 17.4062 1.0625 17.75 1.3125L29 9.75C29.4688 10.0937 29.8363 10.5313 30.1025 11.0625C30.3675 11.5938 30.5 12.1562 30.5 12.75V29.625C30.5 30.6562 30.1331 31.5394 29.3994 32.2744C28.6644 33.0081 27.7812 33.375 26.75 33.375H17.375V22.125H13.625V33.375H4.25Z" fill="black"/>
</svg>
