<svg width="30" height="26" viewBox="0 0 30 26" fill="none" xmlns="http://www.w3.org/2000/svg">
<path d="M2.5 15.5C1.80556 15.5 1.21556 15.2567 0.73 14.77C0.243333 14.2844 0 13.6944 0 13C0 12.3056 0.243333 11.7156 0.73 11.23C1.21556 10.7433 1.80556 10.5 2.5 10.5C3.19444 10.5 3.78444 10.7433 4.27 11.23C4.75667 11.7156 5 12.3056 5 13C5 13.6944 4.75667 14.2844 4.27 14.77C3.78444 15.2567 3.19444 15.5 2.5 15.5ZM2.5 5.5C1.80556 5.5 1.21556 5.25667 0.73 4.77C0.243333 4.28444 0 3.69444 0 3C0 2.30556 0.243333 1.71556 0.73 1.23C1.21556 0.743334 1.80556 0.5 2.5 0.5C3.19444 0.5 3.78444 0.743334 4.27 1.23C4.75667 1.71556 5 2.30556 5 3C5 3.69444 4.75667 4.28444 4.27 4.77C3.78444 5.25667 3.19444 5.5 2.5 5.5ZM2.5 25.5C1.80556 25.5 1.21556 25.2567 0.73 24.77C0.243333 24.2844 0 23.6944 0 23C0 22.3056 0.243333 21.7156 0.73 21.23C1.21556 20.7433 1.80556 20.5 2.5 20.5C3.19444 20.5 3.78444 20.7433 4.27 21.23C4.75667 21.7156 5 22.3056 5 23C5 23.6944 4.75667 24.2844 4.27 24.77C3.78444 25.2567 3.19444 25.5 2.5 25.5ZM10 24.6667C9.52778 24.6667 9.13222 24.5067 8.81333 24.1867C8.49333 23.8678 8.33333 23.4722 8.33333 23C8.33333 22.5278 8.49333 22.1322 8.81333 21.8133C9.13222 21.4933 9.52778 21.3333 10 21.3333H28.3333C28.8056 21.3333 29.2011 21.4933 29.52 21.8133C29.84 22.1322 30 22.5278 30 23C30 23.4722 29.84 23.8678 29.52 24.1867C29.2011 24.5067 28.8056 24.6667 28.3333 24.6667H10ZM10 14.6667C9.52778 14.6667 9.13222 14.5067 8.81333 14.1867C8.49333 13.8678 8.33333 13.4722 8.33333 13C8.33333 12.5278 8.49333 12.1317 8.81333 11.8117C9.13222 11.4928 9.52778 11.3333 10 11.3333H28.3333C28.8056 11.3333 29.2011 11.4928 29.52 11.8117C29.84 12.1317 30 12.5278 30 13C30 13.4722 29.84 13.8678 29.52 14.1867C29.2011 14.5067 28.8056 14.6667 28.3333 14.6667H10ZM10 4.66667C9.52778 4.66667 9.13222 4.50722 8.81333 4.18833C8.49333 3.86833 8.33333 3.47222 8.33333 3C8.33333 2.52778 8.49333 2.13167 8.81333 1.81167C9.13222 1.49278 9.52778 1.33333 10 1.33333H28.3333C28.8056 1.33333 29.2011 1.49278 29.52 1.81167C29.84 2.13167 30 2.52778 30 3C30 3.47222 29.84 3.86833 29.52 4.18833C29.2011 4.50722 28.8056 4.66667 28.3333 4.66667H10Z" fill="black"/>
</svg>
