<svg width="39" height="39" viewBox="0 0 39 39" fill="none" xmlns="http://www.w3.org/2000/svg">
<path d="M19.5 0.75C17.0377 0.75 14.5995 1.23498 12.3247 2.17726C10.0498 3.11953 7.98285 4.50065 6.24175 6.24175C2.72544 9.75805 0.75 14.5272 0.75 19.5C0.75 24.4728 2.72544 29.2419 6.24175 32.7583C7.98285 34.4994 10.0498 35.8805 12.3247 36.8227C14.5995 37.765 17.0377 38.25 19.5 38.25C24.4728 38.25 29.2419 36.2746 32.7583 32.7583C36.2746 29.2419 38.25 24.4728 38.25 19.5C38.25 17.0377 37.765 14.5995 36.8227 12.3247C35.8805 10.0498 34.4994 7.98285 32.7583 6.24175C31.0172 4.50065 28.9502 3.11953 26.6753 2.17726C24.4005 1.23498 21.9623 0.75 19.5 0.75ZM10.2563 31.275C11.0625 29.5875 15.975 27.9375 19.5 27.9375C23.025 27.9375 27.9375 29.5875 28.7438 31.275C26.1176 33.3675 22.8579 34.5048 19.5 34.5C16.0125 34.5 12.8063 33.3 10.2563 31.275ZM31.425 28.5562C28.7438 25.2938 22.2375 24.1875 19.5 24.1875C16.7625 24.1875 10.2562 25.2938 7.575 28.5562C5.58035 25.9587 4.49937 22.7751 4.5 19.5C4.5 11.2313 11.2313 4.5 19.5 4.5C27.7687 4.5 34.5 11.2313 34.5 19.5C34.5 22.9125 33.3375 26.0625 31.425 28.5562ZM19.5 8.25C15.8625 8.25 12.9375 11.175 12.9375 14.8125C12.9375 18.45 15.8625 21.375 19.5 21.375C23.1375 21.375 26.0625 18.45 26.0625 14.8125C26.0625 11.175 23.1375 8.25 19.5 8.25ZM19.5 17.625C18.7541 17.625 18.0387 17.3287 17.5113 16.8012C16.9838 16.2738 16.6875 15.5584 16.6875 14.8125C16.6875 14.0666 16.9838 13.3512 17.5113 12.8238C18.0387 12.2963 18.7541 12 19.5 12C20.2459 12 20.9613 12.2963 21.4887 12.8238C22.0162 13.3512 22.3125 14.0666 22.3125 14.8125C22.3125 15.5584 22.0162 16.2738 21.4887 16.8012C20.9613 17.3287 20.2459 17.625 19.5 17.625Z" fill="black"/>
</svg>
